<svg width="167" height="153" viewBox="0 0 167 153" fill="none" xmlns="http://www.w3.org/2000/svg">
<path d="M47.8052 71C47.8052 80.9411 55.864 89 65.8052 89L92.8052 89C95.5666 89 97.8052 86.7614 97.8052 84L97.8052 50C97.8052 44.4772 93.328 40 87.8052 40L52.8052 40C50.0437 40 47.8052 42.2386 47.8052 45L47.8052 71Z" fill="#FFF1DA"/>
<path d="M96.3863 86.4365C95.0281 86.7391 93.7053 87.3012 92.5002 88.0876C89.3604 90.0861 87.5347 92.9426 88.4226 94.4672C89.3104 95.9918 92.5754 95.6067 95.7152 93.6082C96.9365 92.8497 98.0214 91.8797 98.903 90.758C99.3121 90.216 99.3851 89.5401 99.0896 89.0344L97.9362 87.0538C97.6428 86.5465 97.0345 86.3046 96.3863 86.4365Z" fill="#D5D6DB"/>
<path d="M88.5005 59.443C87.5156 59.6626 86.5563 60.0705 85.6822 60.6408C83.4059 62.0898 82.0811 64.1611 82.7244 65.2657C83.3677 66.3702 85.7362 66.0907 88.0123 64.6419C88.898 64.0916 89.6846 63.3878 90.3241 62.5743C90.6204 62.1815 90.6732 61.6918 90.459 61.3251L89.6239 59.891C89.4114 59.5233 88.9706 59.3475 88.5005 59.443Z" fill="#D5D6DB"/>
<path d="M75.6857 60.5586C75.4664 60.5338 75.2326 60.592 75.0299 60.7213L69.6836 64.1247C69.2364 64.4085 69.0577 64.956 69.2848 65.3477C69.3368 65.4375 69.4079 65.5142 69.4941 65.5734L82.6814 74.6835L100.509 63.3351L75.6857 60.5586Z" fill="#029BC5"/>
<path d="M132.065 59.3173L83.5381 89.8535L54.8243 101.258L40.1789 104.153L38.5659 101.409L119.454 51.491C121.864 49.997 124.55 49.0816 127.24 48.8378C128.417 48.7374 129.581 48.7783 130.702 48.9589C131.696 49.1113 132.64 49.4038 133.504 49.8278C134.468 50.3082 136.304 50.366 136.898 51.3212C136.9 51.3197 138.305 55.7035 132.065 59.3173V59.3173Z" fill="#E1E6E9"/>
<path d="M84.1707 85.7827L63.1912 119.266C62.9292 119.736 63.0852 120.264 63.5392 120.444C63.8179 120.554 64.1589 120.511 64.4452 120.33L69.7882 116.943C70.8159 116.291 71.7256 115.462 72.4614 114.509L113.157 66.6355L84.1707 85.7827Z" fill="#029BC5"/>
<path d="M31.1939 84.6695C30.8437 84.5492 30.4269 84.6108 30.0753 84.8345L25.6597 87.6432C25.058 88.0256 24.8186 88.7621 25.1248 89.2884C25.1831 89.3885 25.2589 89.4766 25.3496 89.5492L37.7313 99.4838L50.7387 91.3697L31.1939 84.6695Z" fill="#029BC5"/>
<path d="M41.8727 101.261L35.2154 110.594C35.1178 110.728 35.1408 110.897 35.2669 110.971C35.3577 111.024 35.4818 111.014 35.5826 110.947L39.7101 108.333C39.7421 108.313 39.7712 108.287 39.7952 108.258L49.5237 96.4211L41.8727 101.261Z" fill="#029BC5"/>
<path d="M129.911 49.3536C128.756 49.1664 127.558 49.1252 126.345 49.2302C125.165 50.8813 124.411 52.7368 124.159 54.6117C124.141 54.9883 124.444 55.2599 124.837 55.2182C124.959 55.2051 125.081 55.1623 125.19 55.0936L132.796 50.2549C131.907 49.8147 130.935 49.5112 129.911 49.3536Z" fill="#029BC5"/>
<path d="M113.332 58.2537L118.296 55.1231L122.926 62.9991L117.962 66.1297L113.332 58.2537Z" fill="#D5D6DB"/>
<path d="M110.206 61.371C109.607 61.7494 109.369 62.4781 109.673 62.9984L110.165 63.8413C110.49 64.3483 111.229 64.4385 111.817 64.0425C112.376 63.6654 112.601 62.9789 112.331 62.4713L111.839 61.6284C111.535 61.1086 110.804 60.9932 110.206 61.371V61.371Z" fill="#3A556A"/>
<path d="M105.741 64.1435C105.143 64.5219 104.904 65.2505 105.208 65.7708L105.701 66.6137C106.025 67.1208 106.764 67.2109 107.352 66.815C107.912 66.4379 108.137 65.7514 107.867 65.2438L107.374 64.4009C107.07 63.8812 106.339 63.7659 105.741 64.1435V64.1435Z" fill="#3A556A"/>
<path d="M101.276 66.9168C100.678 67.2957 100.44 68.0234 100.744 68.5432L101.237 69.3861C101.561 69.8932 102.3 69.9833 102.888 69.5874C103.448 69.2103 103.673 68.5238 103.403 68.0163L102.91 67.1734C102.606 66.6531 101.874 66.5382 101.276 66.9168V66.9168Z" fill="#3A556A"/>
<path d="M96.8113 69.6892C96.2137 70.0681 95.9758 70.7959 96.2796 71.3157L96.7724 72.1586C97.0965 72.6657 97.8357 72.7559 98.4237 72.3599C98.9832 71.9828 99.2082 71.2963 98.9382 70.7887L98.4454 69.9458C98.141 69.4257 97.4095 69.3108 96.8113 69.6892V69.6892Z" fill="#3A556A"/>
<path d="M92.3476 72.4619C91.7496 72.8409 91.5115 73.569 91.8156 74.0891L92.3086 74.9323C92.6126 75.4522 93.3438 75.567 93.9418 75.1887C94.5399 74.8105 94.7784 74.0825 94.4744 73.5627L93.9814 72.7194C93.6782 72.1991 92.9473 72.0835 92.3488 72.4611C92.3483 72.4614 92.3481 72.4616 92.3476 72.4619Z" fill="#3A556A"/>
<path d="M87.8827 75.2344C87.2848 75.6134 87.0467 76.3415 87.3508 76.8615L87.8438 77.7048C88.1477 78.2246 88.8789 78.3394 89.477 77.9612C90.0751 77.583 90.3135 76.855 90.0096 76.3351L89.5166 75.4919C89.2134 74.9715 88.4824 74.856 87.884 75.2336C87.8835 75.2339 87.883 75.2342 87.8827 75.2344Z" fill="#3A556A"/>
<path d="M83.4183 78.0068C82.8204 78.3859 82.5823 79.1139 82.8864 79.634L83.3794 80.4772C83.6841 80.9966 84.4157 81.1102 85.0131 80.7315C85.6095 80.3534 85.8474 79.6269 85.5449 79.1077L85.0519 78.2645C84.7481 77.7443 84.0169 77.6289 83.4183 78.0068Z" fill="#3A556A"/>
<path d="M78.9535 80.7793C78.3556 81.1583 78.1175 81.8864 78.4215 82.4065L78.9146 83.2497C79.2192 83.7691 79.9508 83.8827 80.5482 83.504C81.1447 83.1259 81.3826 82.3994 81.0801 81.8802L80.5871 81.0369C80.2833 80.5167 79.5521 80.4013 78.9535 80.7793Z" fill="#3A556A"/>
<path d="M74.4896 83.5518C73.8917 83.9308 73.6536 84.6588 73.9577 85.1789L74.4507 86.0221C74.7554 86.5415 75.4869 86.6551 76.0844 86.2764C76.6808 85.8983 76.9187 85.1719 76.6162 84.6526L76.1232 83.8094C75.8191 83.2894 75.0879 83.174 74.4896 83.5518Z" fill="#3A556A"/>
<path d="M70.0238 86.3249C69.4257 86.7032 69.1873 87.4312 69.4912 87.951L69.4919 87.9521L69.9849 88.7954C70.2896 89.3147 71.0211 89.4284 71.6186 89.0497C72.215 88.6716 72.4529 87.9451 72.1504 87.4259L71.6574 86.5826C71.3536 86.0624 70.6224 85.947 70.0238 86.3249Z" fill="#3A556A"/>
<path d="M65.5604 89.0967C64.9624 89.4749 64.7239 90.2029 65.0279 90.7227L65.0285 90.7238L65.5215 91.567C65.8262 92.0864 66.5578 92.2001 67.1552 91.8213C67.7516 91.4433 67.9896 90.7168 67.6871 90.1976L67.194 89.3543C66.89 88.8343 66.1588 88.7189 65.5604 89.0967Z" fill="#3A556A"/>
</svg>
