<svg width="18" height="18" viewBox="0 0 18 18" fill="none" xmlns="http://www.w3.org/2000/svg">
<path d="M17.0681 1.76033L10.1931 16.7603C10.1356 16.886 10.038 16.989 9.9157 17.0533C9.79338 17.1177 9.6532 17.1396 9.51708 17.1158C9.38096 17.092 9.25657 17.0237 9.16336 16.9217C9.07016 16.8197 9.0134 16.6896 9.00196 16.5519L8.42071 9.57896L1.44777 8.99771C1.31005 8.98627 1.18001 8.92951 1.07798 8.8363C0.975951 8.7431 0.907688 8.61871 0.883868 8.48258C0.860047 8.34646 0.882013 8.20628 0.946329 8.08397C1.01064 7.96166 1.11368 7.86411 1.23933 7.80658L16.2393 0.93158C16.3553 0.878438 16.4847 0.862048 16.6103 0.884614C16.7358 0.907179 16.8515 0.967618 16.9417 1.05781C17.0319 1.14801 17.0923 1.26365 17.1149 1.38919C17.1374 1.51474 17.121 1.64418 17.0679 1.76014L17.0681 1.76033Z" fill="#080809"/>
</svg>
