<svg width="167" height="153" viewBox="0 0 167 153" fill="none" xmlns="http://www.w3.org/2000/svg">
<path d="M96.1714 86.8474C94.8132 87.15 93.4905 87.7121 92.2853 88.4985C89.1456 90.497 87.3199 93.3535 88.2077 94.8781C89.0956 96.4027 92.3606 96.0176 95.5003 94.0191C96.7217 93.2606 97.8066 92.2905 98.6881 91.1689C99.0972 90.6269 99.1703 89.951 98.8748 89.4453L97.7214 87.4647C97.4279 86.9574 96.8197 86.7155 96.1714 86.8474Z" fill="#D5D6DB"/>
<path d="M88.2857 59.8537C87.3008 60.0733 86.3414 60.4811 85.4674 61.0515C83.1911 62.5004 81.8663 64.5717 82.5096 65.6763C83.1528 66.7809 85.5214 66.5013 87.7975 65.0525C88.6832 64.5022 89.4698 63.7984 90.1092 62.985C90.4055 62.5921 90.4584 62.1024 90.2442 61.7357L89.409 60.3017C89.1965 59.9339 88.7558 59.7581 88.2857 59.8537Z" fill="#D5D6DB"/>
<path d="M75.4708 60.9693C75.2515 60.9445 75.0178 61.0026 74.8151 61.1319L69.4687 64.5353C69.0215 64.8191 68.8428 65.3666 69.07 65.7584C69.1219 65.8482 69.193 65.9249 69.2793 65.984L82.4665 75.0942L100.294 63.7457L75.4708 60.9693Z" fill="#029BC5"/>
<path d="M131.85 59.7282L83.3232 90.2644L54.6094 101.669L39.964 104.564L38.3511 101.82L119.239 51.9019C121.65 50.4079 124.335 49.4925 127.025 49.2487C128.203 49.1483 129.366 49.1892 130.487 49.3698C131.482 49.5222 132.425 49.8147 133.289 50.2387C134.254 50.7191 136.089 50.7769 136.684 51.7321C136.686 51.7306 138.091 56.1144 131.85 59.7282V59.7282Z" fill="#E1E6E9"/>
<path d="M83.9559 86.1931L62.9763 119.676C62.7143 120.147 62.8703 120.674 63.3244 120.854C63.6031 120.965 63.944 120.922 64.2304 120.74L69.5733 117.353C70.601 116.701 71.5108 115.873 72.2465 114.919L112.942 67.0459L83.9559 86.1931Z" fill="#029BC5"/>
<path d="M30.9791 85.0802C30.6288 84.9599 30.2121 85.0214 29.8604 85.2451L25.4448 88.0538C24.8432 88.4362 24.6038 89.1727 24.9099 89.6991C24.9683 89.7991 25.044 89.8872 25.1348 89.9598L37.5165 99.8945L50.5239 91.7803L30.9791 85.0802Z" fill="#029BC5"/>
<path d="M41.6579 101.672L35.0005 111.005C34.9029 111.139 34.926 111.308 35.052 111.381C35.1429 111.435 35.2669 111.425 35.3677 111.358L39.4952 108.744C39.5273 108.724 39.5563 108.698 39.5803 108.669L49.3089 96.832L41.6579 101.672Z" fill="#029BC5"/>
<path d="M129.696 49.764C128.541 49.5768 127.344 49.5356 126.131 49.6406C124.95 51.2917 124.197 53.1472 123.944 55.0221C123.926 55.3987 124.229 55.6703 124.622 55.6286C124.744 55.6155 124.866 55.5727 124.975 55.504L132.582 50.6653C131.692 50.2251 130.72 49.9216 129.696 49.764Z" fill="#029BC5"/>
<path d="M113.117 58.6641L118.082 55.5335L122.711 63.4095L117.747 66.5401L113.117 58.6641Z" fill="#D5D6DB"/>
<path d="M109.991 61.7819C109.393 62.1603 109.154 62.889 109.458 63.4092L109.951 64.2522C110.275 64.7592 111.014 64.8494 111.602 64.4534C112.161 64.0763 112.386 63.3898 112.116 62.8822L111.624 62.0393C111.32 61.5195 110.589 61.4041 109.991 61.7819V61.7819Z" fill="#3A556A"/>
<path d="M105.526 64.5544C104.928 64.9328 104.689 65.6614 104.994 66.1817L105.486 67.0246C105.81 67.5317 106.55 67.6218 107.138 67.2259C107.697 66.8488 107.922 66.1622 107.652 65.6547L107.159 64.8118C106.855 64.2921 106.124 64.1768 105.526 64.5544V64.5544Z" fill="#3A556A"/>
<path d="M101.061 67.3277C100.463 67.7066 100.225 68.4343 100.529 68.9541L101.022 69.797C101.346 70.3041 102.085 70.3942 102.673 69.9983C103.233 69.6212 103.458 68.9347 103.188 68.4271L102.695 67.5843C102.391 67.064 101.659 66.9491 101.061 67.3277V67.3277Z" fill="#3A556A"/>
<path d="M96.5964 70.1001C95.9988 70.479 95.7609 71.2068 96.0648 71.7266L96.5575 72.5695C96.8816 73.0766 97.6209 73.1667 98.2088 72.7708C98.7684 72.3937 98.9934 71.7072 98.7233 71.1996L98.2306 70.3567C97.9262 69.8366 97.1947 69.7217 96.5964 70.1001V70.1001Z" fill="#3A556A"/>
<path d="M92.1327 72.8728C91.5348 73.2518 91.2967 73.9799 91.6008 74.5L92.0938 75.3432C92.3977 75.8631 93.1289 75.9779 93.727 75.5996C94.3251 75.2214 94.5635 74.4934 94.2596 73.9735L93.7666 73.1303C93.4634 72.61 92.7324 72.4944 92.134 72.872C92.1335 72.8723 92.1332 72.8725 92.1327 72.8728Z" fill="#3A556A"/>
<path d="M87.6679 75.6452C87.0699 76.0243 86.8319 76.7524 87.1359 77.2724L87.6289 78.1157C87.9329 78.6355 88.6641 78.7503 89.2622 78.3721C89.8602 77.9939 90.0987 77.2658 89.7947 76.746L89.3017 75.9028C88.9986 75.3824 88.2676 75.2669 87.6691 75.6444C87.6686 75.6448 87.6681 75.6451 87.6679 75.6452Z" fill="#3A556A"/>
<path d="M83.2035 78.4177C82.6056 78.7968 82.3675 79.5248 82.6715 80.0449L83.1646 80.8881C83.4692 81.4074 84.2008 81.5211 84.7982 81.1424C85.3947 80.7643 85.6326 80.0378 85.3301 79.5186L84.8371 78.6754C84.5333 78.1552 83.8021 78.0398 83.2035 78.4177Z" fill="#3A556A"/>
<path d="M78.7386 81.1902C78.1407 81.5692 77.9027 82.2973 78.2067 82.8173L78.6997 83.6606C79.0044 84.18 79.736 84.2936 80.3334 83.9149C80.9298 83.5368 81.1678 82.8103 80.8652 82.2911L80.3722 81.4478C80.0684 80.9276 79.3372 80.8122 78.7386 81.1902Z" fill="#3A556A"/>
<path d="M74.2748 83.9626C73.6768 84.3417 73.4388 85.0697 73.7428 85.5898L74.2358 86.433C74.5405 86.9524 75.2721 87.066 75.8695 86.6873C76.4659 86.3092 76.7039 85.5827 76.4014 85.0635L75.9084 84.2203C75.6043 83.7003 74.8731 83.5849 74.2748 83.9626Z" fill="#3A556A"/>
<path d="M69.809 86.7361C69.2109 87.1143 68.9725 87.8423 69.2764 88.3622L69.277 88.3632L69.77 89.2065C70.0747 89.7259 70.8063 89.8395 71.4037 89.4608C72.0001 89.0827 72.2381 88.3562 71.9355 87.837L71.4425 86.9937C71.1387 86.4735 70.4075 86.3581 69.809 86.7361Z" fill="#3A556A"/>
<path d="M65.3456 89.5076C64.7475 89.8858 64.5091 90.6138 64.813 91.1336L64.8136 91.1347L65.3067 91.9779C65.6114 92.4973 66.3429 92.6109 66.9404 92.2322C67.5368 91.8541 67.7748 91.1277 67.4722 90.6085L66.9792 89.7652C66.6751 89.2452 65.9439 89.1298 65.3456 89.5076Z" fill="#3A556A"/>
</svg>
