<svg width="119" height="153" viewBox="0 0 119 153" fill="none" xmlns="http://www.w3.org/2000/svg">
<path d="M72.1714 86.8474C70.8132 87.15 69.4905 87.7121 68.2853 88.4985C65.1456 90.497 63.3199 93.3535 64.2077 94.8781C65.0956 96.4027 68.3606 96.0176 71.5003 94.0191C72.7217 93.2606 73.8066 92.2905 74.6881 91.1689C75.0972 90.6269 75.1703 89.951 74.8748 89.4453L73.7214 87.4647C73.4279 86.9574 72.8197 86.7155 72.1714 86.8474Z" fill="#D5D6DB"/>
<path d="M64.2857 59.8537C63.3008 60.0733 62.3414 60.4811 61.4674 61.0515C59.1911 62.5004 57.8663 64.5717 58.5096 65.6763C59.1528 66.7809 61.5214 66.5013 63.7975 65.0525C64.6832 64.5022 65.4698 63.7984 66.1092 62.985C66.4055 62.5921 66.4584 62.1024 66.2442 61.7357L65.409 60.3017C65.1965 59.9339 64.7558 59.7581 64.2857 59.8537Z" fill="#D5D6DB"/>
<path d="M51.4708 60.9693C51.2515 60.9445 51.0178 61.0026 50.8151 61.1319L45.4687 64.5353C45.0215 64.8191 44.8428 65.3666 45.07 65.7584C45.1219 65.8482 45.193 65.9249 45.2793 65.984L58.4665 75.0942L76.2938 63.7457L51.4708 60.9693Z" fill="#029BC5"/>
<path d="M107.85 59.7282L59.3232 90.2644L30.6094 101.669L15.964 104.564L14.3511 101.82L95.2389 51.9019C97.6495 50.4079 100.335 49.4925 103.025 49.2487C104.203 49.1483 105.366 49.1892 106.487 49.3698C107.482 49.5222 108.425 49.8147 109.289 50.2387C110.254 50.7191 112.089 50.7769 112.684 51.7321C112.686 51.7306 114.091 56.1144 107.85 59.7282Z" fill="#E1E6E9"/>
<path d="M59.9559 86.1931L38.9763 119.676C38.7143 120.147 38.8703 120.674 39.3244 120.854C39.6031 120.965 39.944 120.922 40.2304 120.74L45.5734 117.353C46.601 116.701 47.5108 115.873 48.2465 114.919L88.9423 67.0459L59.9559 86.1931Z" fill="#029BC5"/>
<path d="M6.97908 85.0802C6.62881 84.9599 6.21209 85.0214 5.86042 85.2451L1.44485 88.0538C0.843194 88.4362 0.603786 89.1727 0.909933 89.6991C0.968262 89.7991 1.04401 89.8872 1.13478 89.9598L13.5165 99.8945L26.5239 91.7803L6.97908 85.0802Z" fill="#029BC5"/>
<path d="M17.6579 101.672L11.0005 111.005C10.9029 111.139 10.926 111.308 11.052 111.381C11.1429 111.435 11.2669 111.425 11.3677 111.358L15.4952 108.744C15.5273 108.724 15.5563 108.698 15.5803 108.669L25.3089 96.832L17.6579 101.672Z" fill="#029BC5"/>
<path d="M105.696 49.764C104.541 49.5768 103.344 49.5356 102.131 49.6406C100.95 51.2917 100.197 53.1472 99.9441 55.0221C99.9258 55.3987 100.229 55.6703 100.622 55.6286C100.744 55.6155 100.866 55.5727 100.975 55.504L108.582 50.6653C107.692 50.2251 106.72 49.9216 105.696 49.764Z" fill="#029BC5"/>
<path d="M89.1172 58.6641L94.0815 55.5335L98.7115 63.4095L93.7472 66.5401L89.1172 58.6641Z" fill="#D5D6DB"/>
<path d="M85.9908 61.7819C85.3925 62.1603 85.1537 62.889 85.4579 63.4092L85.9506 64.2522C86.2747 64.7592 87.0139 64.8494 87.6019 64.4534C88.1614 64.0763 88.3864 63.3898 88.1164 62.8822L87.6237 62.0393C87.3198 61.5195 86.589 61.4041 85.9908 61.7819Z" fill="#3A556A"/>
<path d="M81.5264 64.5544C80.9282 64.9328 80.6894 65.6614 80.9935 66.1817L81.4862 67.0246C81.8103 67.5317 82.5496 67.6218 83.1375 67.2259C83.6971 66.8488 83.9221 66.1622 83.652 65.6547L83.1593 64.8118C82.8552 64.2921 82.1244 64.1768 81.5264 64.5544Z" fill="#3A556A"/>
<path d="M77.0608 67.3277C76.4632 67.7066 76.2253 68.4343 76.5291 68.9541L77.0219 69.797C77.346 70.3041 78.0852 70.3942 78.6732 69.9983C79.2327 69.6212 79.4577 68.9347 79.1877 68.4271L78.695 67.5843C78.3908 67.064 77.6593 66.9491 77.0608 67.3277Z" fill="#3A556A"/>
<path d="M72.5964 70.1001C71.9988 70.479 71.7609 71.2068 72.0648 71.7266L72.5575 72.5695C72.8816 73.0766 73.6209 73.1667 74.2088 72.7708C74.7684 72.3937 74.9934 71.7072 74.7233 71.1996L74.2306 70.3567C73.9262 69.8366 73.1947 69.7217 72.5964 70.1001Z" fill="#3A556A"/>
<path d="M68.1327 72.8728C67.5348 73.2518 67.2967 73.9799 67.6008 74.5L68.0938 75.3432C68.3977 75.8631 69.1289 75.9779 69.727 75.5996C70.3251 75.2214 70.5635 74.4934 70.2596 73.9735L69.7666 73.1303C69.4634 72.61 68.7324 72.4944 68.134 72.872C68.1335 72.8723 68.1332 72.8725 68.1327 72.8728Z" fill="#3A556A"/>
<path d="M63.6679 75.6452C63.0699 76.0243 62.8319 76.7524 63.1359 77.2724L63.6289 78.1157C63.9329 78.6355 64.6641 78.7503 65.2622 78.3721C65.8602 77.9939 66.0987 77.2658 65.7947 76.746L65.3017 75.9028C64.9986 75.3824 64.2676 75.2669 63.6691 75.6444C63.6686 75.6448 63.6681 75.6451 63.6679 75.6452Z" fill="#3A556A"/>
<path d="M59.2035 78.4177C58.6056 78.7968 58.3675 79.5248 58.6715 80.0449L59.1646 80.8881C59.4692 81.4074 60.2008 81.5211 60.7982 81.1424C61.3947 80.7643 61.6326 80.0378 61.3301 79.5186L60.8371 78.6754C60.5333 78.1552 59.8021 78.0398 59.2035 78.4177Z" fill="#3A556A"/>
<path d="M54.7386 81.1902C54.1407 81.5692 53.9027 82.2973 54.2067 82.8173L54.6997 83.6606C55.0044 84.18 55.736 84.2936 56.3334 83.9149C56.9298 83.5368 57.1678 82.8103 56.8652 82.2911L56.3722 81.4478C56.0684 80.9276 55.3372 80.8122 54.7386 81.1902Z" fill="#3A556A"/>
<path d="M50.2748 83.9626C49.6768 84.3417 49.4388 85.0697 49.7428 85.5898L50.2358 86.433C50.5405 86.9524 51.2721 87.066 51.8695 86.6873C52.4659 86.3092 52.7039 85.5827 52.4014 85.0635L51.9084 84.2203C51.6043 83.7003 50.8731 83.5849 50.2748 83.9626Z" fill="#3A556A"/>
<path d="M45.809 86.7361C45.2109 87.1143 44.9725 87.8423 45.2764 88.3622L45.277 88.3632L45.77 89.2065C46.0747 89.7259 46.8063 89.8395 47.4037 89.4608C48.0001 89.0827 48.2381 88.3562 47.9355 87.837L47.4425 86.9937C47.1387 86.4735 46.4075 86.3581 45.809 86.7361Z" fill="#3A556A"/>
<path d="M41.3456 89.5076C40.7475 89.8858 40.5091 90.6138 40.813 91.1336L40.8136 91.1347L41.3067 91.9779C41.6114 92.4973 42.3429 92.6109 42.9404 92.2322C43.5368 91.8541 43.7748 91.1277 43.4722 90.6085L42.9792 89.7652C42.6751 89.2452 41.9439 89.1298 41.3456 89.5076Z" fill="#3A556A"/>
</svg>
