<svg width="16" height="13" viewBox="0 0 16 13" fill="none" xmlns="http://www.w3.org/2000/svg">
<path d="M16 1.53094C15.405 1.79057 14.771 1.96267 14.11 2.04623C14.79 1.64235 15.309 1.0077 15.553 0.242722C14.919 0.618743 14.219 0.884345 13.473 1.03256C12.871 0.394921 12.013 0 11.077 0C9.261 0 7.799 1.46628 7.799 3.26382C7.799 3.52246 7.821 3.77115 7.875 4.0079C5.148 3.8756 2.735 2.57544 1.114 0.594869C0.831 1.0833 0.665 1.64235 0.665 2.24419C0.665 3.37424 1.25 4.37596 2.122 4.95591C1.595 4.94596 1.078 4.79376 0.64 4.55403C0.64 4.56397 0.64 4.57691 0.64 4.58984C0.64 6.17549 1.777 7.49256 3.268 7.79596C3.001 7.86858 2.71 7.90339 2.408 7.90339C2.198 7.90339 1.986 7.89146 1.787 7.84769C2.212 9.13989 3.418 10.0899 4.852 10.1207C3.736 10.9892 2.319 11.5124 0.785 11.5124C0.516 11.5124 0.258 11.5005 0 11.4676C1.453 12.3997 3.175 12.9319 5.032 12.9319C11.068 12.9319 14.368 7.95811 14.368 3.6468C14.368 3.50256 14.363 3.36329 14.356 3.22502C15.007 2.76544 15.554 2.19146 16 1.53094Z" fill="#080809"/>
</svg>
